<svg xmlns="http://www.w3.org/2000/svg" viewBox="0 0 1200 520" role="img" aria-labelledby="title desc">
<title id="title">Stacking and player positioning visual comparison</title>
<desc id="desc">Legal example on the left and fault example on the right.</desc>
<defs>
  <linearGradient id="bg" x1="0" y1="0" x2="1" y2="1"><stop offset="0" stop-color="#ffffff"/><stop offset="1" stop-color="#faf8ff"/></linearGradient>
  <filter id="shadow"><feDropShadow dx="0" dy="7" stdDeviation="10" flood-color="#2f1748" flood-opacity=".09"/></filter>
  <marker id="arrowG" markerWidth="10" markerHeight="10" refX="8" refY="3" orient="auto"><path d="M0,0 L0,6 L9,3 z" fill="#159765"/></marker>
  <marker id="arrowR" markerWidth="10" markerHeight="10" refX="8" refY="3" orient="auto"><path d="M0,0 L0,6 L9,3 z" fill="#d73655"/></marker>
</defs>
<rect width="1200" height="520" rx="26" fill="url(#bg)"/>
<g filter="url(#shadow)">
 <rect x="28" y="30" width="556" height="460" rx="22" fill="#fff" stroke="#bfe9d6" stroke-width="2"/>
 <rect x="616" y="30" width="556" height="460" rx="22" fill="#fff" stroke="#f3c5cf" stroke-width="2"/>
</g>
<rect x="28" y="30" width="556" height="72" rx="22" fill="#edf9f3"/><rect x="28" y="80" width="556" height="22" fill="#edf9f3"/>
<rect x="616" y="30" width="556" height="72" rx="22" fill="#fff0f3"/><rect x="616" y="80" width="556" height="22" fill="#fff0f3"/>
<circle cx="70" cy="66" r="18" fill="#159765"/><path d="M62 66l6 7 12-15" fill="none" stroke="white" stroke-width="5" stroke-linecap="round" stroke-linejoin="round"/>
<text x="100" y="74" font-family="Arial, sans-serif" font-size="28" font-weight="700" fill="#147a55">LEGAL</text>
<circle cx="658" cy="66" r="18" fill="#d73655"/><path d="M650 58l16 16m0-16l-16 16" stroke="white" stroke-width="5" stroke-linecap="round"/>
<text x="688" y="74" font-family="Arial, sans-serif" font-size="28" font-weight="700" fill="#ba263f">FAULT</text>
<!-- courts -->
<g stroke="#ffffff" stroke-width="4">
 <rect x="70" y="145" width="470" height="225" rx="7" fill="#88a9d2"/>
 <line x1="305" y1="145" x2="305" y2="370"/><line x1="70" y1="257.5" x2="540" y2="257.5"/>
 <rect x="264" y="145" width="82" height="225" fill="#8bc99c" opacity=".75"/>
 <line x1="305" y1="145" x2="305" y2="370" stroke="#27334d" stroke-width="7"/>
 <rect x="658" y="145" width="470" height="225" rx="7" fill="#88a9d2"/>
 <line x1="893" y1="145" x2="893" y2="370"/><line x1="658" y1="257.5" x2="1128" y2="257.5"/>
 <rect x="852" y="145" width="82" height="225" fill="#ef9ba7" opacity=".72"/>
 <line x1="893" y1="145" x2="893" y2="370" stroke="#27334d" stroke-width="7"/>
</g>
<circle cx="145" cy="200" r="20" fill="#6f4aa1"/><circle cx="145" cy="315" r="20" fill="#6f4aa1"/><circle cx="465" cy="200" r="20" fill="#159765"/><circle cx="465" cy="315" r="20" fill="#159765"/><text x="132" y="208" font-family="Arial" font-size="18" fill="white">1</text><text x="132" y="323" font-family="Arial" font-size="18" fill="white">2</text><text x="452" y="208" font-family="Arial" font-size="18" fill="white">R</text><path d="M165 200h90" stroke="#159765" stroke-width="5" marker-end="url(#arrowG)"/>
<circle cx="735" cy="200" r="20" fill="#6f4aa1"/><circle cx="735" cy="315" r="20" fill="#6f4aa1"/><circle cx="1050" cy="200" r="20" fill="#d73655"/><circle cx="1050" cy="315" r="20" fill="#d73655"/><text x="722" y="208" font-family="Arial" font-size="18" fill="white">2</text><path d="M750 185l55 55m0-55l-55 55" stroke="#d73655" stroke-width="7"/>
<text x="70" y="425" font-family="Arial, sans-serif" font-size="23" fill="#21302a">Correct server and receiver remain identified.</text>
<text x="658" y="425" font-family="Arial, sans-serif" font-size="23" fill="#3d252b">Wrong player serves or receives.</text>
</svg>